<svg width="38" height="38" viewBox="0 0 38 38" fill="none" xmlns="http://www.w3.org/2000/svg">
<path fill-rule="evenodd" clip-rule="evenodd" d="M8.96094 19C8.96094 18.4477 9.40865 18 9.96094 18H22.9609C23.5132 18 23.9609 18.4477 23.9609 19C23.9609 19.5523 23.5132 20 22.9609 20H9.96094C9.40865 20 8.96094 19.5523 8.96094 19Z" fill="white"/>
<path fill-rule="evenodd" clip-rule="evenodd" d="M8.96094 23C8.96094 22.4477 9.40865 22 9.96094 22H22.9609C23.5132 22 23.9609 22.4477 23.9609 23C23.9609 23.5523 23.5132 24 22.9609 24H9.96094C9.40865 24 8.96094 23.5523 8.96094 23Z" fill="white"/>
<path fill-rule="evenodd" clip-rule="evenodd" d="M4.04672 11.5858C4.4218 11.2107 4.9305 11 5.46094 11H27.4609C27.9914 11 28.5001 11.2107 28.8751 11.5858C29.2502 11.9609 29.4609 12.4696 29.4609 13V32C29.4609 32.3466 29.2815 32.6684 28.9867 32.8506C28.6918 33.0329 28.3237 33.0494 28.0137 32.8944L24.4609 31.118L20.9081 32.8944C20.6266 33.0352 20.2952 33.0352 20.0137 32.8944L16.4609 31.118L12.9081 32.8944C12.6266 33.0352 12.2952 33.0352 12.0137 32.8944L8.46094 31.118L4.90815 32.8944C4.59816 33.0494 4.23002 33.0329 3.93521 32.8506C3.64039 32.6684 3.46094 32.3466 3.46094 32V13C3.46094 12.4696 3.67165 11.9609 4.04672 11.5858ZM27.4609 13L5.46094 13L5.46094 30.382L8.01372 29.1056C8.29525 28.9648 8.62662 28.9648 8.90815 29.1056L12.4609 30.882L16.0137 29.1056C16.2952 28.9648 16.6266 28.9648 16.9081 29.1056L20.4609 30.882L24.0137 29.1056C24.2952 28.9648 24.6266 28.9648 24.9081 29.1056L27.4609 30.382V13Z" fill="white"/>
<rect x="18" y="2" width="20" height="20" rx="10" fill="#750310"/>
<path d="M24.3556 11.764C24.3556 10.1493 24.6263 8.88933 25.1676 7.984C25.7183 7.06933 26.661 6.612 27.9956 6.612C29.3303 6.612 30.2683 7.06933 30.8096 7.984C31.3603 8.88933 31.6356 10.1493 31.6356 11.764C31.6356 13.3973 31.3603 14.676 30.8096 15.6C30.2683 16.5147 29.3303 16.972 27.9956 16.972C26.661 16.972 25.7183 16.5147 25.1676 15.6C24.6263 14.676 24.3556 13.3973 24.3556 11.764ZM30.0676 11.764C30.0676 11.008 30.0163 10.3687 29.9136 9.846C29.8203 9.32333 29.6243 8.89867 29.3256 8.572C29.027 8.236 28.5836 8.068 27.9956 8.068C27.4076 8.068 26.9643 8.236 26.6656 8.572C26.367 8.89867 26.1663 9.32333 26.0636 9.846C25.9703 10.3687 25.9236 11.008 25.9236 11.764C25.9236 12.548 25.9703 13.206 26.0636 13.738C26.157 14.27 26.353 14.6993 26.6516 15.026C26.9596 15.3527 27.4076 15.516 27.9956 15.516C28.5836 15.516 29.027 15.3527 29.3256 15.026C29.6336 14.6993 29.8343 14.27 29.9276 13.738C30.021 13.206 30.0676 12.548 30.0676 11.764Z" fill="white"/>
</svg>
